<svg width="20" height="22" viewBox="0 0 20 22" fill="yellow" xmlns="http://www.w3.org/2000/svg">
    <path d="M19.1256 11.8203C18.4419 11.137 17.4356 11.0755 16.7519 11.7588L14.7978 13.7118C14.2891 14.2197 13.6761 14.2208 13.3183 13.7986C13.0812 13.5189 13.1748 12.6561 13.2412 12.1088L14.2212 4.05341C14.3087 3.33373 13.7961 2.63848 13.0761 2.55102C12.3562 2.4635 11.7016 3.01691 11.614 3.73644L10.533 10.0635C10.4765 10.2209 10.3554 10.2481 10.3417 10.0362L9.97379 1.8125C9.97379 1.08758 9.38588 0.5 8.66063 0.5C7.93533 0.5 7.34743 1.08758 7.34743 1.8125L7.32155 10.0977C7.3284 10.1934 7.24637 10.2207 7.23155 10.1115L6.06329 3.64423C5.93438 2.93084 5.25127 2.41597 4.5376 2.54488C3.82384 2.67369 3.34983 3.39739 3.47865 4.11064L4.51894 11.6788C4.52002 11.8135 4.47483 11.8904 4.41076 11.7178L2.85877 7.56856C2.61596 6.8855 1.86521 6.48739 1.18177 6.73002C0.498382 6.97269 0.141101 7.76412 0.383819 8.44709L3.10454 17.3358C3.11874 17.3848 3.13379 17.4335 3.14921 17.4819L3.15488 17.5002C3.1554 17.5017 3.15605 17.5029 3.15652 17.5043C3.90999 19.8234 6.08926 21.5 8.66068 21.5C10.3067 21.5 12.0165 20.9198 13.318 19.9216L13.3182 19.9215C14.724 19.0754 19.2278 14.2334 19.2278 14.2334C19.9115 13.5501 19.8094 12.5037 19.1256 11.8203Z" fill="
#f8c444"/>
</svg>
